inDegrees=yes
name=ik_S50_A05_T02
DataType=double
version=3
OpenSimVersion=4.3-2021-08-27-4bc7ad9
endheader
time	pelvis_tilt	pelvis_list	pelvis_rotation	pelvis_tx	pelvis_ty	pelvis_tz	hip_flexion_r	hip_adduction_r	hip_rotation_r	knee_angle_r	knee_angle_r_beta	ankle_angle_r	subtalar_angle_r	mtp_angle_r	hip_flexion_l	hip_adduction_l	hip_rotation_l	knee_angle_l	knee_angle_l_beta	ankle_angle_l	subtalar_angle_l	mtp_angle_l	lumbar_extension	lumbar_bending	lumbar_rotation	arm_flex_r	arm_add_r	arm_rot_r	elbow_flex_r	pro_sup_r	wrist_flex_r	wrist_dev_r	arm_flex_l	arm_add_l	arm_rot_l	elbow_flex_l	pro_sup_l	wrist_flex_l	wrist_dev_l
8.059999999999917	-6.186546571189304	-3.733867215919398	34.54030012700815	0	0.9399999999999999	0	41.0054331931169	-10.77716649185477	-10.82169790371915	42.67801858946476	0.7448719426135061	0	0	0	41.0054331931169	-10.77716649185477	-10.82169790371915	42.67801858946476	0.7448719426135061	0	0	0	-4.314919993967651	-1.803789752029779	0.2773763011529922	60.00031994028679	-10.92218557380956	14.9079187446643	91.8211916217064	52.11262271706982	0	0	18.96654089142719	-7.409462860180953	-7.789523592283675	58.66337763963539	123.431076082221	0	0
8.079999999999917	-6.199906558238139	-3.756461602984783	34.7374503198827	0	0.9399999999999999	0	41.00680820759895	-10.7762335307295	-10.82106541955285	42.68095252433908	0.7449231494371022	0	0	0	41.00680820759895	-10.7762335307295	-10.82106541955285	42.68095252433908	0.7449231494371022	0	0	0	-4.345556705882395	-1.801533259845149	0.1655397274485583	60.67342599868154	-10.17613974651489	15.99300559011972	91.49590531740674	51.65979708152575	0	0	19.05386795356484	-7.397114945121042	-7.739663429786312	58.61541428686886	123.4362859616813	0	0
8.099999999999916	-6.198032260103541	-3.765020820149986	34.90361614864916	0	0.9399999999999999	0	41.00813160142666	-10.77533663532879	-10.82045706301817	42.68377739333538	0.7449724527020252	0	0	0	41.00813160142666	-10.77533663532879	-10.82045706301817	42.68377739333538	0.7449724527020252	0	0	0	-4.356644939390228	-1.794456052067566	0.03646486120452174	61.18604845496418	-9.345986526942717	17.03799252907518	91.05443294507212	51.3447049645757	0	0	19.12018989781404	-7.401430490074289	-7.716525608961715	58.53735132759242	123.4312138972034	0	0
8.119999999999916	-6.20228584699125	-3.792379856571818	35.08650610466123	0	0.9399999999999999	0	41.01250587248835	-10.77236633206698	-10.81844305272591	42.69308511312924	0.7451349030582811	0	0	0	41.01250587248835	-10.77236633206698	-10.81844305272591	42.69308511312924	0.7451349030582811	0	0	0	-4.384703203621556	-1.799808141547036	-0.07976429208370926	61.62257494057	-8.353297130037335	17.96354718263008	90.06985942190792	51.52425010842036	0	0	19.17570860011187	-7.416598932282091	-7.644359854714172	58.51050649755763	123.4752912829213	0	0
8.139999999999915	-6.198318851755696	-3.792974285657259	35.2225892037588	0	0.9399999999999999	0	41.01656536113968	-10.7696186337337	-10.81657711710259	42.70172962484772	0.7452857782499956	0	0	0	41.01656536113968	-10.7696186337337	-10.81657711710259	42.70172962484772	0.7452857782499956	0	0	0	-4.392195670968924	-1.786273401929419	-0.2152698686610332	61.93783606111207	-7.284066109866028	18.65200066697362	88.49603964132559	52.54644615517995	0	0	19.21020251148652	-7.423435201241531	-7.653461095740129	58.47354331130281	123.5039320665215	0	0
8.159999999999915	-6.232324158626709	-3.846086704748192	35.43778573234196	0	0.9399999999999999	0	41.01801910004553	-10.76863876982234	-10.8159105720933	42.70483283520247	0.7453399394880682	0	0	0	41.01801910004553	-10.76863876982234	-10.8159105720933	42.70483283520247	0.7453399394880682	0	0	0	-4.456112615245207	-1.79900857728184	-0.3016185419549182	62.35249089188223	-6.471744074337179	19.63492312431931	87.90096890732187	52.24277089711379	0	0	19.38911939136626	-7.438073994227303	-7.512384374120746	58.42834689600695	123.4982515005831	0	0
8.179999999999914	-6.241746289997368	-3.853900587700589	35.5942012510305	0	0.9399999999999999	0	41.02098206866221	-10.76664046915768	-10.81455119711584	42.7111474083515	0.7454501495803767	0	0	0	41.02098206866221	-10.76664046915768	-10.81455119711584	42.7111474083515	0.7454501495803767	0	0	0	-4.477936064237271	-1.783870045116669	-0.4277445892665985	62.55488532978075	-5.467666103332198	20.49503293182877	86.64847364516726	52.75664725881359	0	0	19.44810651563304	-7.434964881989877	-7.457796278457954	58.38414412049395	123.5413631320737	0	0
8.199999999999914	-6.270449374117774	-3.907150506911435	35.86743455960407	0	0.9399999999999999	0	41.02492721277895	-10.76398416947196	-10.81274252896734	42.71955292249739	0.7455968534775455	0	0	0	41.02492721277895	-10.76398416947196	-10.81274252896734	42.71955292249739	0.7455968534775455	0	0	0	-4.550155157248476	-1.780706301655038	-0.6640690143949947	62.76070730882593	-3.338471230098478	21.6479040308345	83.65310322789803	54.72339252100753	0	0	19.59642921665224	-7.469833875235496	-7.380903115438553	58.36310718012118	123.5066939952661	0	0
8.219999999999914	-6.265579764227274	-3.904862936044215	35.90708288554286	0	0.9399999999999999	0	41.02583622467849	-10.76338186713913	-10.8123300899566	42.72151536282213	0.7456311045225861	0	0	0	41.02583622467849	-10.76338186713913	-10.8123300899566	42.72151536282213	0.7456311045225861	0	0	0	-4.546828986254853	-1.778117147839384	-0.6914621681941607	62.70977410701345	-3.279633620359026	21.86718343600691	83.49908735558036	54.45211300913113	0	0	19.61603940213248	-7.48134635869346	-7.326979942454581	58.33958203138503	123.4935119105758	0	0
8.239999999999913	-6.28297052137493	-3.93087087511228	36.16158023065009	0	0.9399999999999999	0	41.03013588803193	-10.76049558882205	-10.81036179581488	42.73067822864301	0.7457910267000789	0	0	0	41.03013588803193	-10.76049558882205	-10.81036179581488	42.73067822864301	0.7457910267000789	0	0	0	-4.595044593761258	-1.757920811363928	-0.924141054035197	62.81727768298929	-1.357452389188895	23.06822925777074	80.59662996172793	55.70156759604346	0	0	19.71313362574775	-7.474276871003136	-7.267942379662322	58.31396535452878	123.4884992661512	0	0
8.259999999999913	-6.319862804923283	-3.973306979940186	36.29251551182622	0	0.9399999999999999	0	41.03501470430123	-10.75722930472395	-10.80813126879838	42.74107664754914	0.7459725133469925	0	0	0	41.03501470430123	-10.75722930472395	-10.80813126879838	42.74107664754914	0.7459725133469925	0	0	0	-4.659838039598714	-1.755813304319295	-1.02801172257426	62.90873857932242	-0.4272647881385234	23.57697784563827	79.02315196520109	56.52018612258834	0	0	19.83989233442463	-7.484224939420796	-7.217801850001373	58.30354697143891	123.4709352983356	0	0
8.279999999999912	-6.335659052510907	-3.993069151831234	36.38451752549616	0	0.9399999999999999	0	41.03872986947862	-10.75475017671734	-10.80643565592112	42.74900129761094	0.7461108245826392	0	0	0	41.03872986947862	-10.75475017671734	-10.80643565592112	42.74900129761094	0.7461108245826392	0	0	0	-4.692675072486371	-1.748608527500127	-1.127697396162445	63.00126081608684	0.4047823101715529	23.95757007762053	77.88873357262935	57.31412773746383	0	0	19.8803272868572	-7.489988227668953	-7.202929897685124	58.32001892656365	123.4668331470558	0	0
8.299999999999912	-6.349149514922755	-4.008141101718208	36.43055129039435	0	0.9399999999999999	0	41.04286868121712	-10.75199935924098	-10.80455084324833	42.75784270901758	0.7462651363222085	0	0	0	41.04286868121712	-10.75199935924098	-10.80455084324833	42.75784270901758	0.7462651363222085	0	0	0	-4.717554370158846	-1.744511974766435	-1.180735599195244	62.87160313516414	0.6651918399667371	24.27876794516192	76.8607262194391	57.40630474136391	0	0	19.90171647476308	-7.49367840581334	-7.19522720718114	58.33055712066123	123.4107732935946	0	0
8.319999999999911	-6.35439415735158	-4.021799455454272	36.54016410612786	0	0.9399999999999999	0	41.04723122171445	-10.74910265684577	-10.80256460872211	42.76715202587865	0.7464276145525456	0	0	0	41.04723122171445	-10.74910265684577	-10.80256460872211	42.76715202587865	0.7464276145525456	0	0	0	-4.738847098063692	-1.734200607539891	-1.301949570242277	62.8340449834736	1.588131594897308	24.78857700792442	75.26827656369308	58.36507760033087	0	0	19.90399436300479	-7.489683104865502	-7.19147139404412	58.36960816968039	123.4316625452444	0	0
8.339999999999911	-6.385076749637029	-4.05265945580503	36.51025845382134	0	0.9399999999999999	0	41.04833727078583	-10.74837726558816	-10.80206495378606	42.76953444298642	0.7464691955752321	0	0	0	41.04833727078583	-10.74837726558816	-10.80206495378606	42.76953444298642	0.7464691955752321	0	0	0	-4.783507073426219	-1.737987589966131	-1.318523948099178	62.8959801743833	1.67352583935777	24.85631970541699	75.05793297079202	58.39112056314201	0	0	19.96292954389644	-7.481193140442707	-7.203219308597999	58.40884516363141	123.4300504567619	0	0
8.359999999999911	-6.387475095823691	-4.074139678636521	36.70361586331865	0	0.9399999999999999	0	41.05304431758447	-10.74526279247969	-10.79992557766407	42.77958210108333	0.7466445602911377	0	0	0	41.05304431758447	-10.74526279247969	-10.79992557766407	42.77958210108333	0.7466445602911377	0	0	0	-4.813688087812473	-1.725221524154008	-1.527322088048481	62.87601497597699	3.342438852255792	25.53032152520611	72.25763167118821	60.33212376773278	0	0	19.96120954679613	-7.498011863036085	-7.159393803167267	58.44724435378063	123.3736544571317	0	0
8.37999999999991	-6.394490464020539	-4.088191675511615	36.71346687477968	0	0.9399999999999999	0	41.05700608523443	-10.74266157843478	-10.79813325686772	42.78807856158012	0.7467928515015724	0	0	0	41.05700608523443	-10.74266157843478	-10.79813325686772	42.78807856158012	0.7467928515015724	0	0	0	-4.831044253851861	-1.727514149791931	-1.551259573734443	62.80522926727159	3.501579895999578	25.61052957227648	71.60200199677263	60.81835427014641	0	0	19.98642106524222	-7.505921561592468	-7.162133351835608	58.45559708808172	123.3720298728186	0	0
8.39999999999991	-6.402880665602574	-4.114751920812399	36.87760923715615	0	0.9399999999999999	0	41.06136653652985	-10.73979145085962	-10.79615650251738	42.79739092167034	0.746955382846278	0	0	0	41.06136653652985	-10.73979145085962	-10.79615650251738	42.79739092167034	0.746955382846278	0	0	0	-4.868379890959101	-1.720968722288664	-1.730345424466514	62.85768908760861	4.915731538100395	26.30697820507724	69.32053037613237	62.41505515726006	0	0	20.02971274518282	-7.537278297661903	-7.155123644692555	58.47877681001029	123.3638667147515	0	0
8.419999999999909	-6.404713712686495	-4.121679441739593	36.97324507611209	0	0.9399999999999999	0	41.06496020885621	-10.73743439302923	-10.79453049972316	42.8050750522229	0.7470894962245732	0	0	0	41.06496020885621	-10.73743439302923	-10.79453049972316	42.8050750522229	0.7470894962245732	0	0	0	-4.880026713950979	-1.711384370786572	-1.822337024389983	62.82950988679008	5.596314217206279	26.61461540754891	67.90326088398461	63.62975298872021	0	0	20.03867997390618	-7.535138717273131	-7.146531713047157	58.48460086420086	123.3682330985692	0	0
8.439999999999909	-6.4105600092374	-4.149609437848839	37.06274633118727	0	0.9399999999999999	0	41.0689158148957	-10.73484510934609	-10.79274240022681	42.81353259929343	0.7472371082675965	0	0	0	41.0689158148957	-10.73484510934609	-10.79274240022681	42.81353259929343	0.7472371082675965	0	0	0	-4.907120302601919	-1.716203918134011	-1.907880228100924	62.83684848365299	6.226138438919652	26.90770183405528	66.62431960766946	64.80200670766601	0	0	20.0782296237204	-7.562447370450235	-7.119463790563843	58.50603138849066	123.3303887543339	0	0
8.459999999999908	-6.408753837199865	-4.164853314837732	37.15277921413513	0	0.9399999999999999	0	41.07446141948743	-10.731222589646	-10.79023769326858	42.82538228448184	0.747443924289459	0	0	0	41.07446141948743	-10.731222589646	-10.79023769326858	42.82538228448184	0.747443924289459	0	0	0	-4.920588391251409	-1.717298394422109	-1.97398781688194	62.81403583608396	6.731584827467082	27.2548330037224	65.5059699991231	65.76592024407013	0	0	20.08964776071947	-7.603537696232427	-7.083632958157668	58.50759581419805	123.321269966288	0	0
8.479999999999908	-6.433456944627275	-4.204393673643773	37.29594049807675	0	0.9399999999999999	0	41.07902147169324	-10.72825338677348	-10.78818137822728	42.83512926051159	0.7476140411132912	0	0	0	41.07902147169324	-10.72825338677348	-10.78818137822728	42.83512926051159	0.7476140411132912	0	0	0	-4.972436178517404	-1.719358311606285	-2.082596540432765	62.89611693352008	7.575294225681414	28.00141665343792	64.27773128734428	66.66994367616559	0	0	20.15259003166138	-7.600864589113182	-7.018734226948068	58.53483637285509	123.3054035884076	0	0
